<svg width="22" height="19" viewBox="0 0 22 19" fill="none" xmlns="http://www.w3.org/2000/svg">
<path d="M13.06 8.12652L11 7.18652L13.06 6.24652L14 4.18652L14.94 6.24652L17 7.18652L14.94 8.12652L14 10.1865L13.06 8.12652ZM3 12.1865L3.94 10.1265L6 9.18652L3.94 8.24652L3 6.18652L2.06 8.24652L0 9.18652L2.06 10.1265L3 12.1865ZM7.5 7.18652L8.59 4.77652L11 3.68652L8.59 2.59652L7.5 0.186523L6.41 2.59652L4 3.68652L6.41 4.77652L7.5 7.18652ZM3.5 18.6865L9.5 12.6765L13.5 16.6765L22 7.11652L20.59 5.70652L13.5 13.6765L9.5 9.67652L2 17.1865L3.5 18.6865Z" fill="#6200ea"/>
</svg>