<svg width="20" height="19" viewBox="0 0 20 19" fill="none" xmlns="http://www.w3.org/2000/svg">
<path d="M19.8978 6.32652L18.8478 1.95652C18.6278 1.05652 17.8478 0.436523 16.9378 0.436523H3.04781C2.14781 0.436523 1.35781 1.06652 1.14781 1.95652L0.0978093 6.32652C-0.142191 7.34652 0.0778095 8.38652 0.717809 9.20652C0.797809 9.31652 0.907809 9.39652 0.997809 9.49652V16.4365C0.997809 17.5365 1.89781 18.4365 2.99781 18.4365H16.9978C18.0978 18.4365 18.9978 17.5365 18.9978 16.4365V9.49652C19.0878 9.40652 19.1978 9.31652 19.2778 9.21652C19.9178 8.39652 20.1478 7.34652 19.8978 6.32652ZM16.9078 2.42652L17.9578 6.79652C18.0578 7.21652 17.9678 7.63652 17.7078 7.96652C17.5678 8.14652 17.2678 8.43652 16.7678 8.43652C16.1578 8.43652 15.6278 7.94652 15.5578 7.29652L14.9778 2.43652L16.9078 2.42652ZM10.9978 2.43652H12.9578L13.4978 6.95652C13.5478 7.34652 13.4278 7.73652 13.1678 8.02652C12.9478 8.28652 12.6278 8.43652 12.2178 8.43652C11.5478 8.43652 10.9978 7.84652 10.9978 7.12652V2.43652ZM6.48781 6.95652L7.03781 2.43652H8.99781V7.12652C8.99781 7.84652 8.44781 8.43652 7.70781 8.43652C7.36781 8.43652 7.05781 8.28652 6.81781 8.02652C6.56781 7.73652 6.44781 7.34652 6.48781 6.95652ZM2.03781 6.79652L3.04781 2.43652H5.01781L4.43781 7.29652C4.35781 7.94652 3.83781 8.43652 3.22781 8.43652C2.73781 8.43652 2.42781 8.14652 2.29781 7.96652C2.02781 7.64652 1.93781 7.21652 2.03781 6.79652ZM2.99781 16.4365V10.4065C3.07781 10.4165 3.14781 10.4365 3.22781 10.4365C4.09781 10.4365 4.88781 10.0765 5.46781 9.48652C6.06781 10.0865 6.86781 10.4365 7.77781 10.4365C8.64781 10.4365 9.42781 10.0765 10.0078 9.50652C10.5978 10.0765 11.3978 10.4365 12.2978 10.4365C13.1378 10.4365 13.9378 10.0865 14.5378 9.48652C15.1178 10.0765 15.9078 10.4365 16.7778 10.4365C16.8578 10.4365 16.9278 10.4165 17.0078 10.4065V16.4365H2.99781Z" fill="#0F0840"/>
</svg>